# xmcd
#
# Track frame offsets:
#	150
#	18472
#	37522
#	55480
#	76325
#	93435
#	107545
#	130865
#	146620
#	162705
#	181880
#
# Disc length: 2714 seconds
#
# Revision: 0
# Processed by: cddbd v1.5.2PL0 Copyright (c) Steve Scherf et al.
# Submitted via: EasyCDDAExtractor 2010.4.0.0
#
DISCID=880a980b
DTITLE=Jason Crabb - Love Is Stronger
DYEAR=2013
DGENRE=Country Gospel
TTITLE0=Give
TTITLE1=What The Blood Is For
TTITLE2=Let Mercy Hold You
TTITLE3=Living Life Upside Down
TTITLE4=Love Is Stronger
TTITLE5=Morning
TTITLE6=There's Not A Crown
TTITLE7=God's Up To Something
TTITLE8=Love Wins
TTITLE9=Near
TTITLE10=Satisfied
EXTD=
EXTT0=
EXTT1=
EXTT2=
EXTT3=
EXTT4=
EXTT5=
EXTT6=
EXTT7=
EXTT8=
EXTT9=
EXTT10=
PLAYORDER=
